<mxfile host="app.diagrams.net" agent="Mozilla/5.0 (Windows NT 10.0; Win64; x64) AppleWebKit/537.36 (KHTML, like Gecko) Chrome/131.0.0.0 Safari/537.36 Edg/131.0.0.0" version="25.0.3">
  <diagram name="Page-1" id="QE4cUznPfzqMuU34ur8J">
    <mxGraphModel dx="1709" dy="1922" grid="1" gridSize="10" guides="1" tooltips="1" connect="1" arrows="1" fold="1" page="1" pageScale="1" pageWidth="827" pageHeight="1169" math="0" shadow="0">
      <root>
        <mxCell id="0" />
        <mxCell id="1" parent="0" />
        <mxCell id="1RAJI8hPIHJRJfzqPvRJ-1" value="Verification In The Database" style="rounded=0;whiteSpace=wrap;html=1;" vertex="1" parent="1">
          <mxGeometry x="60" y="80" width="160" height="40" as="geometry" />
        </mxCell>
        <mxCell id="1RAJI8hPIHJRJfzqPvRJ-4" value="Login" style="rounded=0;whiteSpace=wrap;html=1;" vertex="1" parent="1">
          <mxGeometry x="200" width="110" height="40" as="geometry" />
        </mxCell>
        <mxCell id="1RAJI8hPIHJRJfzqPvRJ-7" style="edgeStyle=orthogonalEdgeStyle;rounded=0;orthogonalLoop=1;jettySize=auto;html=1;" edge="1" parent="1" source="1RAJI8hPIHJRJfzqPvRJ-4">
          <mxGeometry relative="1" as="geometry">
            <mxPoint x="134" y="80" as="targetPoint" />
          </mxGeometry>
        </mxCell>
        <mxCell id="1RAJI8hPIHJRJfzqPvRJ-8" value="Login Details" style="edgeLabel;html=1;align=center;verticalAlign=middle;resizable=0;points=[];" vertex="1" connectable="0" parent="1RAJI8hPIHJRJfzqPvRJ-7">
          <mxGeometry x="0.4499" y="-4" relative="1" as="geometry">
            <mxPoint x="230" y="-40" as="offset" />
          </mxGeometry>
        </mxCell>
        <mxCell id="1RAJI8hPIHJRJfzqPvRJ-11" style="edgeStyle=orthogonalEdgeStyle;rounded=0;orthogonalLoop=1;jettySize=auto;html=1;entryX=1;entryY=0.5;entryDx=0;entryDy=0;" edge="1" parent="1" source="1RAJI8hPIHJRJfzqPvRJ-9" target="1RAJI8hPIHJRJfzqPvRJ-10">
          <mxGeometry relative="1" as="geometry" />
        </mxCell>
        <mxCell id="1RAJI8hPIHJRJfzqPvRJ-9" value="Registation" style="rounded=0;whiteSpace=wrap;html=1;" vertex="1" parent="1">
          <mxGeometry x="680" width="125" height="40" as="geometry" />
        </mxCell>
        <mxCell id="1RAJI8hPIHJRJfzqPvRJ-17" style="edgeStyle=orthogonalEdgeStyle;rounded=0;orthogonalLoop=1;jettySize=auto;html=1;" edge="1" parent="1" source="1RAJI8hPIHJRJfzqPvRJ-10" target="1RAJI8hPIHJRJfzqPvRJ-4">
          <mxGeometry relative="1" as="geometry" />
        </mxCell>
        <mxCell id="1RAJI8hPIHJRJfzqPvRJ-10" value="User Database" style="rounded=0;whiteSpace=wrap;html=1;" vertex="1" parent="1">
          <mxGeometry x="414" width="120" height="40" as="geometry" />
        </mxCell>
        <mxCell id="1RAJI8hPIHJRJfzqPvRJ-13" value="Signup Details" style="text;html=1;align=center;verticalAlign=middle;whiteSpace=wrap;rounded=0;" vertex="1" parent="1">
          <mxGeometry x="560" y="-10" width="90" height="30" as="geometry" />
        </mxCell>
        <mxCell id="1RAJI8hPIHJRJfzqPvRJ-25" value="Admin Dashboard" style="rounded=0;whiteSpace=wrap;html=1;" vertex="1" parent="1">
          <mxGeometry x="580" y="80" width="120" height="40" as="geometry" />
        </mxCell>
        <mxCell id="1RAJI8hPIHJRJfzqPvRJ-29" value="Login Infomation" style="text;html=1;align=center;verticalAlign=middle;whiteSpace=wrap;rounded=0;" vertex="1" parent="1">
          <mxGeometry x="70" y="20" width="60" height="30" as="geometry" />
        </mxCell>
        <mxCell id="1RAJI8hPIHJRJfzqPvRJ-41" style="edgeStyle=orthogonalEdgeStyle;rounded=0;orthogonalLoop=1;jettySize=auto;html=1;entryX=1;entryY=0.5;entryDx=0;entryDy=0;exitX=0.586;exitY=1.084;exitDx=0;exitDy=0;exitPerimeter=0;" edge="1" parent="1" source="1RAJI8hPIHJRJfzqPvRJ-30" target="1RAJI8hPIHJRJfzqPvRJ-42">
          <mxGeometry relative="1" as="geometry">
            <mxPoint x="705" y="500" as="targetPoint" />
            <mxPoint x="810" y="400" as="sourcePoint" />
            <Array as="points">
              <mxPoint x="668" y="370" />
            </Array>
          </mxGeometry>
        </mxCell>
        <mxCell id="1RAJI8hPIHJRJfzqPvRJ-43" value="Valid Purchase Info" style="edgeLabel;html=1;align=center;verticalAlign=middle;resizable=0;points=[];" vertex="1" connectable="0" parent="1RAJI8hPIHJRJfzqPvRJ-41">
          <mxGeometry x="-0.0101" y="-4" relative="1" as="geometry">
            <mxPoint x="-54" y="-26" as="offset" />
          </mxGeometry>
        </mxCell>
        <mxCell id="1RAJI8hPIHJRJfzqPvRJ-51" style="edgeStyle=orthogonalEdgeStyle;rounded=0;orthogonalLoop=1;jettySize=auto;html=1;" edge="1" parent="1" source="1RAJI8hPIHJRJfzqPvRJ-30" target="1RAJI8hPIHJRJfzqPvRJ-50">
          <mxGeometry relative="1" as="geometry" />
        </mxCell>
        <mxCell id="1RAJI8hPIHJRJfzqPvRJ-30" value="Verification Of Purchase and Its Detials" style="rounded=0;whiteSpace=wrap;html=1;" vertex="1" parent="1">
          <mxGeometry x="580" y="200" width="150" height="40" as="geometry" />
        </mxCell>
        <mxCell id="1RAJI8hPIHJRJfzqPvRJ-31" style="edgeStyle=orthogonalEdgeStyle;rounded=0;orthogonalLoop=1;jettySize=auto;html=1;entryX=0.399;entryY=0.005;entryDx=0;entryDy=0;entryPerimeter=0;" edge="1" parent="1" source="1RAJI8hPIHJRJfzqPvRJ-25" target="1RAJI8hPIHJRJfzqPvRJ-30">
          <mxGeometry relative="1" as="geometry" />
        </mxCell>
        <mxCell id="1RAJI8hPIHJRJfzqPvRJ-32" value="Purchase Details" style="text;html=1;align=center;verticalAlign=middle;whiteSpace=wrap;rounded=0;" vertex="1" parent="1">
          <mxGeometry x="650" y="150" width="60" height="30" as="geometry" />
        </mxCell>
        <mxCell id="1RAJI8hPIHJRJfzqPvRJ-33" value="Rejection Notification" style="rounded=0;whiteSpace=wrap;html=1;" vertex="1" parent="1">
          <mxGeometry x="30" y="240" width="120" height="40" as="geometry" />
        </mxCell>
        <mxCell id="1RAJI8hPIHJRJfzqPvRJ-45" style="edgeStyle=orthogonalEdgeStyle;rounded=0;orthogonalLoop=1;jettySize=auto;html=1;exitX=0;exitY=0.5;exitDx=0;exitDy=0;entryX=1;entryY=0.5;entryDx=0;entryDy=0;" edge="1" parent="1" source="1RAJI8hPIHJRJfzqPvRJ-42" target="1RAJI8hPIHJRJfzqPvRJ-44">
          <mxGeometry relative="1" as="geometry" />
        </mxCell>
        <mxCell id="1RAJI8hPIHJRJfzqPvRJ-46" value="Checks Inventory" style="edgeLabel;html=1;align=center;verticalAlign=middle;resizable=0;points=[];" vertex="1" connectable="0" parent="1RAJI8hPIHJRJfzqPvRJ-45">
          <mxGeometry x="-0.0654" y="-2" relative="1" as="geometry">
            <mxPoint y="-8" as="offset" />
          </mxGeometry>
        </mxCell>
        <mxCell id="1RAJI8hPIHJRJfzqPvRJ-42" value="Valid Details" style="rounded=0;whiteSpace=wrap;html=1;" vertex="1" parent="1">
          <mxGeometry x="390" y="350" width="130" height="40" as="geometry" />
        </mxCell>
        <mxCell id="1RAJI8hPIHJRJfzqPvRJ-44" value="Inventory Checking" style="rounded=0;whiteSpace=wrap;html=1;" vertex="1" parent="1">
          <mxGeometry x="155" y="350" width="130" height="40" as="geometry" />
        </mxCell>
        <mxCell id="1RAJI8hPIHJRJfzqPvRJ-48" value="Create Purchase Order and Also record it in a database" style="rounded=0;whiteSpace=wrap;html=1;" vertex="1" parent="1">
          <mxGeometry x="10" y="520" width="180" height="40" as="geometry" />
        </mxCell>
        <mxCell id="1RAJI8hPIHJRJfzqPvRJ-50" value="Customer Request For Purchase" style="rounded=0;whiteSpace=wrap;html=1;" vertex="1" parent="1">
          <mxGeometry x="880" y="200" width="130" height="40" as="geometry" />
        </mxCell>
        <mxCell id="1RAJI8hPIHJRJfzqPvRJ-52" value="Purchase Information" style="text;html=1;align=center;verticalAlign=middle;whiteSpace=wrap;rounded=0;" vertex="1" parent="1">
          <mxGeometry x="760" y="190" width="60" height="30" as="geometry" />
        </mxCell>
        <mxCell id="1RAJI8hPIHJRJfzqPvRJ-70" style="edgeStyle=orthogonalEdgeStyle;rounded=0;orthogonalLoop=1;jettySize=auto;html=1;entryX=0;entryY=0.5;entryDx=0;entryDy=0;" edge="1" parent="1" source="1RAJI8hPIHJRJfzqPvRJ-55" target="1RAJI8hPIHJRJfzqPvRJ-58">
          <mxGeometry relative="1" as="geometry">
            <Array as="points">
              <mxPoint x="570" y="540" />
            </Array>
          </mxGeometry>
        </mxCell>
        <mxCell id="1RAJI8hPIHJRJfzqPvRJ-71" value="Adding Low Stock" style="edgeLabel;html=1;align=center;verticalAlign=middle;resizable=0;points=[];" vertex="1" connectable="0" parent="1RAJI8hPIHJRJfzqPvRJ-70">
          <mxGeometry x="-0.0502" y="-1" relative="1" as="geometry">
            <mxPoint y="-11" as="offset" />
          </mxGeometry>
        </mxCell>
        <mxCell id="1RAJI8hPIHJRJfzqPvRJ-55" value="Low Stock Information" style="rounded=0;whiteSpace=wrap;html=1;" vertex="1" parent="1">
          <mxGeometry x="265" y="520" width="125" height="40" as="geometry" />
        </mxCell>
        <mxCell id="1RAJI8hPIHJRJfzqPvRJ-58" value="Supplier" style="rounded=0;whiteSpace=wrap;html=1;" vertex="1" parent="1">
          <mxGeometry x="590" y="520" width="120" height="40" as="geometry" />
        </mxCell>
        <mxCell id="1RAJI8hPIHJRJfzqPvRJ-75" style="edgeStyle=orthogonalEdgeStyle;rounded=0;orthogonalLoop=1;jettySize=auto;html=1;entryX=1;entryY=0.5;entryDx=0;entryDy=0;" edge="1" parent="1" source="1RAJI8hPIHJRJfzqPvRJ-74" target="1RAJI8hPIHJRJfzqPvRJ-9">
          <mxGeometry relative="1" as="geometry" />
        </mxCell>
        <mxCell id="1RAJI8hPIHJRJfzqPvRJ-74" value="Root" style="rounded=0;whiteSpace=wrap;html=1;" vertex="1" parent="1">
          <mxGeometry x="930" width="125" height="40" as="geometry" />
        </mxCell>
        <mxCell id="1RAJI8hPIHJRJfzqPvRJ-79" value="" style="rhombus;whiteSpace=wrap;html=1;" vertex="1" parent="1">
          <mxGeometry x="110" y="120" width="70" height="70" as="geometry" />
        </mxCell>
        <mxCell id="1RAJI8hPIHJRJfzqPvRJ-83" value="" style="endArrow=classic;html=1;rounded=0;exitX=0.5;exitY=1;exitDx=0;exitDy=0;entryX=0.417;entryY=0;entryDx=0;entryDy=0;entryPerimeter=0;" edge="1" parent="1" source="1RAJI8hPIHJRJfzqPvRJ-79" target="1RAJI8hPIHJRJfzqPvRJ-33">
          <mxGeometry width="50" height="50" relative="1" as="geometry">
            <mxPoint x="520" y="220" as="sourcePoint" />
            <mxPoint x="340" y="270" as="targetPoint" />
          </mxGeometry>
        </mxCell>
        <mxCell id="1RAJI8hPIHJRJfzqPvRJ-86" value="" style="endArrow=classic;html=1;rounded=0;exitX=0.5;exitY=1;exitDx=0;exitDy=0;" edge="1" parent="1" source="1RAJI8hPIHJRJfzqPvRJ-79">
          <mxGeometry width="50" height="50" relative="1" as="geometry">
            <mxPoint x="130" y="240" as="sourcePoint" />
            <mxPoint x="210" y="240" as="targetPoint" />
          </mxGeometry>
        </mxCell>
        <mxCell id="1RAJI8hPIHJRJfzqPvRJ-91" style="edgeStyle=orthogonalEdgeStyle;rounded=0;orthogonalLoop=1;jettySize=auto;html=1;entryX=0;entryY=0.5;entryDx=0;entryDy=0;" edge="1" parent="1" source="1RAJI8hPIHJRJfzqPvRJ-88" target="1RAJI8hPIHJRJfzqPvRJ-25">
          <mxGeometry relative="1" as="geometry" />
        </mxCell>
        <mxCell id="1RAJI8hPIHJRJfzqPvRJ-98" value="Verified Login" style="edgeLabel;html=1;align=center;verticalAlign=middle;resizable=0;points=[];" vertex="1" connectable="0" parent="1RAJI8hPIHJRJfzqPvRJ-91">
          <mxGeometry x="-0.0529" y="2" relative="1" as="geometry">
            <mxPoint x="-40" y="8" as="offset" />
          </mxGeometry>
        </mxCell>
        <mxCell id="1RAJI8hPIHJRJfzqPvRJ-88" value="Validation" style="rounded=0;whiteSpace=wrap;html=1;" vertex="1" parent="1">
          <mxGeometry x="165" y="240" width="120" height="40" as="geometry" />
        </mxCell>
        <mxCell id="1RAJI8hPIHJRJfzqPvRJ-89" value="Rejection&amp;nbsp;" style="text;html=1;align=center;verticalAlign=middle;whiteSpace=wrap;rounded=0;" vertex="1" parent="1">
          <mxGeometry x="50" y="191" width="60" height="30" as="geometry" />
        </mxCell>
        <mxCell id="1RAJI8hPIHJRJfzqPvRJ-92" value="" style="shape=rhombus;html=1;dashed=0;whiteSpace=wrap;perimeter=rhombusPerimeter;" vertex="1" parent="1">
          <mxGeometry x="195" y="390" width="60" height="50" as="geometry" />
        </mxCell>
        <mxCell id="1RAJI8hPIHJRJfzqPvRJ-93" value="" style="endArrow=classic;html=1;rounded=0;exitX=0.5;exitY=1;exitDx=0;exitDy=0;entryX=0.75;entryY=0;entryDx=0;entryDy=0;" edge="1" parent="1" source="1RAJI8hPIHJRJfzqPvRJ-92" target="1RAJI8hPIHJRJfzqPvRJ-48">
          <mxGeometry width="50" height="50" relative="1" as="geometry">
            <mxPoint x="180" y="450" as="sourcePoint" />
            <mxPoint x="115" y="500" as="targetPoint" />
          </mxGeometry>
        </mxCell>
        <mxCell id="1RAJI8hPIHJRJfzqPvRJ-96" value="" style="endArrow=classic;html=1;rounded=0;exitX=0.5;exitY=1;exitDx=0;exitDy=0;entryX=0.407;entryY=-0.032;entryDx=0;entryDy=0;entryPerimeter=0;" edge="1" parent="1" source="1RAJI8hPIHJRJfzqPvRJ-92" target="1RAJI8hPIHJRJfzqPvRJ-55">
          <mxGeometry width="50" height="50" relative="1" as="geometry">
            <mxPoint x="230" y="450" as="sourcePoint" />
            <mxPoint x="155" y="530" as="targetPoint" />
          </mxGeometry>
        </mxCell>
        <mxCell id="1RAJI8hPIHJRJfzqPvRJ-97" value="Validated Data" style="text;html=1;align=center;verticalAlign=middle;whiteSpace=wrap;rounded=0;" vertex="1" parent="1">
          <mxGeometry x="190" y="190" width="60" height="30" as="geometry" />
        </mxCell>
        <mxCell id="1RAJI8hPIHJRJfzqPvRJ-99" value="Order Creation and Store" style="text;html=1;align=center;verticalAlign=middle;whiteSpace=wrap;rounded=0;" vertex="1" parent="1">
          <mxGeometry x="115" y="460" width="60" height="30" as="geometry" />
        </mxCell>
        <mxCell id="1RAJI8hPIHJRJfzqPvRJ-100" value="Notification" style="text;html=1;align=center;verticalAlign=middle;whiteSpace=wrap;rounded=0;" vertex="1" parent="1">
          <mxGeometry x="280" y="460" width="60" height="30" as="geometry" />
        </mxCell>
        <mxCell id="1RAJI8hPIHJRJfzqPvRJ-102" value="" style="endArrow=classic;html=1;rounded=0;" edge="1" parent="1">
          <mxGeometry width="50" height="50" relative="1" as="geometry">
            <mxPoint x="630" y="-10" as="sourcePoint" />
            <mxPoint x="630" y="-10" as="targetPoint" />
          </mxGeometry>
        </mxCell>
        <mxCell id="1RAJI8hPIHJRJfzqPvRJ-107" value="" style="shape=image;verticalLabelPosition=bottom;verticalAlign=top;imageAspect=0;aspect=fixed;image=data:image/png,iVBORw0KGgoAAAANSUhEUgAAAK0AAAA4CAYAAACPBHizAAAAAXNSR0IArs4c6QAAAARnQU1BAACxjwv8YQUAAAAJcEhZcwAADsMAAA7DAcdvqGQAABHsSURBVHhe7ZzZcxTV+8Y/3T1rlpmQjSyEMiFAWHVEhSCoqKhQQlHcaFlWuRSlF/wTXGl56RVlKWUVSpUriheWioKAgEgRkGhCEkLCkoQQspBltp7p/t30279OGxa/YQKJ81R1ZbrnzFme85z3vOc9p6OYpmmSRRbTCKr7QRZZ3O/IijaLaYesaLOYdsiKNotph6xos5h2yIo2i2kHZapCXqlUCo/HQzQaJScnB9M0MU2TkZERRkZGSCaTpFIpDMNAVVW8Xi/hcJhwOIyu63g8HgBM08Tr9Y7L2zRNFEWxy1FVFVWdueNROBKYpkk6nbY5kmemaZJKpfB6vRiGgaZpmKZp/15RFDudaZr2s/sdGRVtLBYjGAximiaJRIJAIIBpmkSjUbxeL/F4nAsXLtDR0cHIyIhNZjAYJCcnh8LCQioqKgiHw4RCIZvQZDIJYHcCgKIoaJo2LUifLNLptN12aa88S6VS6Lpu8y5idMMwDNLp9LTkLaOiFVLT6TSxWIxAIEAsFuPQoUMcOnSIw4cP09PTQ39/vy3YdDptkxkMBqmpqWHDhg2sWbOGBQsWUFFRQSAQQFGUCYl2W5KZCJm1RKgCwzC4ceMGw8PDhEIhAoEAHo8H0zTtv8KPiNUpaOF9IpHfT8ioaOPxOJqmYRgGAL///jsnT57k3LlzHD9+nP7+foLBIPn5+YTDYfLz8/F6vSQSCUZHR+nu7qavr4/a2lqWL1/Ogw8+yLJly6ipqWH27NkEg0GbaMMwME0Tn89335M+WcigFPEKkskkHR0dHDt2jGQySUFBAUuXLqWyspJwODwuDxnQwtt0GuQZFa2M6sbGRgYGBvjpp5/4+OOP7ZEeDAZZuXIl9fX11NTUUFRUhKZp9Pf309HRwdGjRzl27Bijo6PEYjFKS0t56qmnqK+vZ82aNdTW1uLz+WyrK/mmUql/WJGZCKdva5omsViMhoYGPvroI/766y/8fj/PPPMM9fX1LFmyhMLCQrxeL4qijFsjTAfr6kRGRRuNRrl+/TrvvPMO3377Laqq0t/fz3PPPWeLr6qqivz8fNtPDQQCGIZBLBYjmUxy/fp1Ghsb+frrr/nll1/Iz8+nurqazZs3s3HjRqqrqwkEAnZnOOG+n6kQNyEajXLy5Ek++eQTfvzxR3p7eykqKqKyspJIJMKTTz7JqlWrqKmpQVVVez2AxVUqlbLdhvsZGR1ehmHQ3t5OOp2mt7eXsbExqqqqqK6upqysjKVLl9oLrcLCQmbNmkUoFKKgoICysjKqqqqoqamhoqKCsrIywuEwY2Nj9PX10dXVxejoKF6v1yZZ13XbFfmvCBaLZwBVVTGsBZZpRQ4GBgbo7OykpaWFixcv0tHRweXLlxkZGbEXbcKbx+O57wULoO3YsWOH++G/hUwxzvtUKkV3dzfvvvsuDQ0NDA0NUV9fzyuvvMJrr71GfX29vTiQ6UoIk2keqyPKy8tZsWIFdXV16LrO4OAgf//9N/39/RQVFVFQUEAwGLR/L37uTBWuc2CaVrhL0zTS6TRXrlzhzz//pKWlhbGxMUzTRNd1rl27RlNTE0ePHqW1tZVkMkleXp7Nm9PySr4TfXbD3fdTgUmLVkiTiss0c/HiRY4cOcI333xDMpmktLSU9evX89JLL1FZWWmvbCfyPZ2C0zQNn89Hfn4+fr8fn8+Hpml0dHRw7do1AoEAtbW1FBUVgbWynijPqYB74GYKqhVlkTY6RdvV1cWff/5JW1sb0WjU/t4wDEZHR+nv72doaIjh4WGuXr3KwMAAAH6/385PLLYYD1msuQ2B9L0TUyHgSYtWyFOt1axiOfW//vor3377LSdPniQSifDyyy9TX1/P4sWLycnJuePGSX6qqpKfn8+cOXPIzc3l4sWLNDc3MzY2xpIlSygrK7PFKpeQPFWXu96ZuphgEea0tKdOneLChQvEYjFbgKYj3DUwMEBzczOnT5/m0qVLxOPxcTOdpmn2GsFdrkBELOViiX0qcFdEq1nBaRmZqVSKzz77jK+++opkMsnGjRvZtm0b5eXlhMPhO/Y7xT9TrCnK4/EQCoXQNI14PE53dzcDAwOUlZVRU1NDQUHBOIsgHZWJ62a43fd3A073Se41TUPXdS5fvkxjYyNtbW2Mjo7adZH0wo3H40FRFIaGhmhqauLUqVO0tLSQSCQIBoP2WkH601mu9IvpEK7b+mcSkxatkIA10nRdp6enh71793L69GkikQibNm1i7dq1Nlmy1Xo70UreklamLJ/PRyAQ4Pz581y5cgXTNKmpqaGysnJKSHNjIjG7RX63L9Xhg8p9Mpmku7ubpqYm2tvbGRkZAatfxOLKvWEYJJNJ4vE4w8PDDA0N2df169cZHBzENE1ycnJsl0zWIKqqjvssBkJcs0xjUiEv07HjJeK6ceMGx48f5/333+fQoUPs2LGD559/nuXLl5NMJvH7/f8Iik8E6RwRK5aIZSoaHh7mvffeY9euXYTDYV599VXWr19PMBgkkUjcM792KiH8iHh0XaepqYl9+/Zx4sQJ+vr6xhkVJ4/yTEQmfq+iKBQWFrJw4UKeeOIJ1q5dy5w5cygsLKSgoACv12uf/TAtt0R+PxWC5W6JViwnQH9/P19++SV79uyhoaGBffv2EYlEmDVrFoo1lUiRQtxEEKsq0x6Az+ezp6V0Os0HH3zAzp07GRwcJC8vzybVtHy3STTttpC2C9xtyXTZ6gQ7YgBDQ0N2WFCmdSffUk/Vms7luaRRrcNKPp+P4uJiqqqq7DjvqlWrqKurs90wwC5f13V8Ph9TgUmJFleMMJFIMDY2xocffsgXX3xBU1MTBw4cYMmSJQSDwXFTiuE6qTQRTIe1lWrKvWEYfPPNN3z44YecOXOGwcFBW9CqK3B+t+EUgfyVtkhdM1m+lKXrum31UtZprlQqZZcvPOOoq5Mb4dKZzp3W7/eTm5vLvHnzWLp0KQ899JB9DsTv99t5OOuSaUxatLqu21NxLBZD13V27tzJZ599Rnt7Oz///DOLFi0iLy8PxZre1TvwZ3EsxORonfO36XSaI0eO8Omnn7J//35GR0ftgzSadd5hkk27KUSY8XjcbrM8xzHYMgWPx4NhGKRSKXv2MSxf3znNq5bL4JzCb8a7aZ3bMB0hTHmmKAolJSWUl5ezaNEiNm/ezNNPP00oFBqXx83yvtuYlGhNx4kqLFJGR0fZuXMne/fupaWlhQMHDrBgwQLy8/Pt6V5G5+0gwnOKUH6v6zq//fYbu3fvZv/+/RQXF7Nw4UJ7cEyiWbeFWKvu7m46Ozvp6+sjFovdcbsmC80RZvL5fCQSCVRVxefzMTo6iuoIP8pAxxV1UFxrBekbSefxePB6vZSWlpKXl8eKFStYuXIlkUiEuXPnUlxcbLtiygQhsUxiUqIVQkS8mqYxMDDAzp07+f777zl79iwHDx5k4cKF5Obm2mSIqG7XUNO1UnYSlEql2L9/P7t27eK3335j3bp1bN682d4dy7SlxfLfe3t7GRwcJB6P26K4XbsmC+eg9Hg8JJNJu0wJebW3txOLxcBl+SWduARidJxcBwIBSktLqaurIxKJUFZWRm1tLXV1dZSUlJCTk2MbD9GA5JHptnO3RGs4pvHBwUF2797NV199RUNDA3v37uWhhx6ipKQExZqyTMeJ+ltBSJAqOomNRqN8/vnnfPTRR5w/f57t27fz1ltvEQ6H8fv9436XCTgFKpbMiUx2XtpxCFzuVVUlHo9z+vRpPvjgA37++Wc7eiAuAxPUS+quWps3s2bN4oEHHmD58uWsXr2ahx9+mNLSUnvHzDko09YaQgzRVOGfbP8LOEetLLJ8Ph/V1dW2f9Xc3My1a9fszpVpbaKOvhWc1iKVSjEyMkJHRwc9PT2Ew2HKy8sJhULjFgeapmXs8nq9eDyecRbLWUf5nIlL8ndC+kIiOfL6Usp6hUn4V1UVzdo0kHuPx0NxcTHLly9n69atbN++nTfeeIM1a9ZQXFyM3++32+qsgzOvieqUKfw75bgglRUCZGEg04hhGBw/fpzu7m5brGKVtTuM6TmJkPLGxsbo7Oykvb2dRCLBokWLmDt3rk1gpke9eYuQmnSq1CMTl1MoimPzRUSI5fe60ymO2UfTNILBIFVVVaxbt45XX32VN998k1deeYVnn32W+fPnU1RURG5urh3WknZNVN5U4q6U6Bx5qqpSVVXFwoULKSkp4eTJkzQ3N3Pp0iWGhobQ/sXK3jmqFWuxoOs6vb29nDhxgra2NnJzc1mxYgVVVVW2mKYSIiKnQKYKbg5FVFh9IcJypvVaL4xWV1fzyCOPsGnTJrZt28bbb7/Nli1bWLRo0bizIWJdndZa8nNeTOB6ZAqTEq2QJCIUQQaDQRYvXsyqVavo6enhxIkTHDx4kHPnztlTyp1CRGhaL0cODw/T2dnJ4cOHOX/+PKFQiAULFlBaWmoTLHATe7cup7VxQgQ8FdbHdLRT2i3PTEtkErqS71VVtV/BETfg9ddfZ82aNVRUVBAMBu12yYEZZzm3gpQ5FZj02QMc4pVGGoZBIBAgJyeH77//nv7+fjo7O0mlUlRWVlJQUIBmLSSEFLcABJIvQHd3NwcPHuSnn37i2LFj5OXl8cILL/DMM88wZ84cPNZJJclTOuBuX/cDnLyJONPpNN3d3Zw9e5aWlhai0SiKouDz+Zg7dy6PP/4469evt8+CSPgqNzfXHmzuQae6Ts0JbsbJVPAzKdE6KygNVa2FSV5eHnl5eZw5c4be3l4uXLiArusoimJvt/r9fkdu/w/DWtjI56GhIS5cuMCBAwf47rvvaGhowDAMnnzySbZu3cqCBQvGWQlcYp+JcIrWsMKNaetoYmNjI11dXXg8Hvvtj7Vr17JlyxZeeOEFVqxYQWlpKTk5OeNEKfnJX7dQb4Wp5HtSohW4Kywk5ObmUlRUxPDwMK2trQwNDdHR0YHf78fr9VJZWXnLcImiKESjUVpbW/nuu+/Ys2cPra2t6LrOvHnzeP7551m9ejWzZs2y83FOiTMVzplNccS85YTdmTNnGBgYoKCggBdffJFNmzaxYcMG6urqKCsrs9+pc/vhN+uH+w2TFq001N14GaXhcJiuri56enpQVdU+3CI+VjweR9d1YrEYsViMRCJBLBZjeHiYnp4e2traOHv2LL/++iunT5/G7/czZ84cHnvsMZ544glqa2vtuKziONM7XTrgf4FwJ2IVGNb/Pbh69Sr5+flUVVXx1FNPEYlEmD9/Pn6/fxxXTn91OvE1qc0Fwc380mQySTKZpK2tjcbGRk6dOsW+fftIp9OEw2Fmz55NJBIhEolQXl5u72TFYjEGBwdpbW3lzJkzdHV10dnZicfjYeXKlfaW4rJlyygqKkJxWFiph7suMwkiVucmg6wlenp6aGlpIRwO2ztbeXl5+P1+0um0HcfG4ulmfXc/466IFtdq1vlM13USiQQjIyNcvnyZY8eO2WGw5uZmKisrKSsrs31S6QRd1+nr6+Pq1auEQiGqq6tZvXo1jz76KPPmzbM3E9wWVnzqmSxcEW3KOnTtbH88HicajRIKhTCtbVZxBdyWebryc9dEi0u4iqIQi8XGnRzSdZ2RkRH++OMPfvjhB44cOQKODQchXqBpmn0gedWqVTz++ONUVFTYq12BexGR/hcnyaYjjAn+w4xYXeFSTsZJWhE2joPfzv4Saz0deJuUaN0j1w0hVUSE4yRYX18f169fp7e3l97eXvvNUbGQqqpSUlJCdXU1oVDIflVcvndaDl3XUa3tSOmYmbwQE4E63QOxujLTYInbyZP8dfaZu/tv1Z/3CyYl2jvFROI2TZOxsTFisRjRaJRkMjmOVI/HQ25urr2N6N77dpLvdAcmKmumwS1CeYZDdM77mcbJlIj2Zkhbp4SkChN1guqKIzq/m0kdkcWd456K1ilWgdOC3sxCZEX738Y9FW3a8WLdnQjwTtJkMfNxT0V7K0zkNtypuLOY2binonUX7Rap+LHudGSt7n8a91S0/wvEAmet7n8X93UwUwTqtMBZZDHtLG0WWdzXljaLLCZCVrRZTDtkRZvFtENWtFlMO2RFm8W0Q1a0WUw7ZEWbxbRDVrRZTDtkRZvFtMP/Adtm0vHDAjeUAAAAAElFTkSuQmCC;" vertex="1" parent="1">
          <mxGeometry x="560" y="30" width="92.68" height="30" as="geometry" />
        </mxCell>
      </root>
    </mxGraphModel>
  </diagram>
</mxfile>
